{"title":"Once.A.Gangster.2010.DVDRip.Xvid.FEEL-FREE","uid":5712547,"size":990047006,"categoryP":"video","categoryS":"movies","magnet":"?xt=urn:btih:601e34563e02b7ee584aed1b86a1c15c190c32a9&amp;dn=Once.A.Gangster.2010.DVDRip.Xvid.FEEL-FREE&amp;tr=udp%3A%2F%2Ftracker.openbittorrent.com%3A80&amp;tr=udp%3A%2F%2Fopen.demonii.com%3A1337&amp;tr=udp%3A%2F%2Ftracker.coppersurfer.tk%3A6969&amp;tr=udp%3A%2F%2Fexodus.desync.com%3A6969","seeders":1,"leechers":1,"uploader":null,"files":10,"time":1279960411,"description":"Genre:Action | Comedy | Crime\nLanguage:Cantonese\nIMDb:http://www.imdb.com/title/tt1611840/\nSource:DVD\nSubtitles:English\nEncoder: Tony2\n..............................................\nGeneral\nComplete name : Once.A.Gangster.2010.DVDRip.Xvid-FEEL-FREE\nFormat : AVI\nFormat/Info : Audio Video Interleave\nFile size : 913 MiB\nDuration : 1h 35mn\nOverall bit rate : 1 339 Kbps\n...............................................\nVideo\nFormat : xvid\nCodec ID : xvid\nDuration : 1h 35mn\nBit rate : 1 199 Kbps\nWidth : 652 pixels\nHeight : 352 pixels\nDisplay aspect ratio : 1.852\nFrame rate : 23.976 fps\nResolution : 24 bits\nBits/(Pixel*Frame) : 0.218\nStream size : 817 MiB (89%)\n.................................................\nAudio\nID : 1\nFormat : MPEG Audio\nFormat version : Version 1\nFormat profile : Layer 3\nFormat settings, Mode : Joint stereo / MS Stereo\nCodec ID : 55\nCodec ID/Hint : MP3\nDuration : 1h 35mn\nBit rate mode : Constant\nBit rate : 128 Kbps\nChannel(s) : 2 channels\nSampling rate : 48.0 KHz\nResolution : 16 bits\nStream size : 87.2 MiB (10%)\nAlignment : Aligned on interleaves\nInterleave, duration : 24 ms (0.58 video frame)\nInterleave, preload duration : 24 ms\nWriting library : LAME3.97\n.................................................","torrent":{"xt":"urn:btih:601e34563e02b7ee584aed1b86a1c15c190c32a9","amp;dn":"Once.A.Gangster.2010.DVDRip.Xvid.FEEL-FREE","amp;tr":["udp%3A%2F%2Ftracker.openbittorrent.com%3A80","udp%3A%2F%2Fopen.demonii.com%3A1337","udp%3A%2F%2Ftracker.coppersurfer.tk%3A6969","udp%3A%2F%2Fexodus.desync.com%3A6969"],"infoHash":"601e34563e02b7ee584aed1b86a1c15c190c32a9","infoHashBuffer":{"type":"Buffer","data":[96,30,52,86,62,2,183,238,88,74,237,27,134,161,193,92,25,12,50,169]},"announce":[],"urlList":[]}}